<svg width="143" height="136" viewBox="0 0 143 136" fill="none" xmlns="http://www.w3.org/2000/svg"><g clip-path="url(#clip0)"><path d="M116.961 135.686h26.04l-13.02-29.106-13.02 29.106z" fill="#F16461"/><path d="M15.882 0h6.242v11.271h2.135V0H30.5v29.267h-6.242V16.254h-2.135v13.013h-6.242V0zm16.99 0h11.303v5.377h-5.06v5.853h3.595v4.983h-3.595v7.87h5.138v5.18h-11.38V0zM3.637 5.377H0V0h13.515v5.377H9.878v23.89H3.636V5.377zm14.197 51.32V35.299h6.206v21.122c0 2.93.393 3.282 1.067 3.282.673 0 1.067-.316 1.067-3.204V35.3H32.1v21.278c0 5.496-2.093 8.265-7.195 8.265-5.092.004-7.07-2.686-7.07-8.145zm20.27-16.016h-3.636V35.3H47.98v5.376h-3.636v23.89h-6.242V40.682zM50.349 35.3H56c5.89 0 9.521 1.58 9.521 14.635 0 12.972-3.755 14.636-9.52 14.636h-5.652V35.3zm6.682 24.087c1.978 0 2.134-1.778 2.134-9.452 0-7.87-.16-9.254-2.176-9.254h-.393v18.706h.435zM103.125 35.3h6.599c4.227 0 7.708 2.768 7.708 9.768 0 3.717-.989 6.288-2.45 7.595l2.885 11.904h-6.087l-2.17-9.768h-.435v9.768h-6.046V35.3h-.004zm6.558 14.952c.829 0 1.539-.871 1.539-5.102 0-3.997-.71-4.47-1.58-4.47h-.477v9.572h.518zm-41.826-.317c0-10.918 2.491-14.91 7.666-14.91 5.139 0 7.667 3.992 7.667 14.91 0 10.919-2.528 14.911-7.667 14.911-5.175 0-7.666-3.997-7.666-14.91zm8.93 0c0-7.393-.036-9.176-1.264-9.176-1.222 0-1.264 1.778-1.264 9.176 0 7.399.041 9.374 1.264 9.374 1.228 0 1.264-1.98 1.264-9.374zm8.637 0c0-10.918 2.492-14.91 7.667-14.91 5.138 0 7.666 3.992 7.666 14.91 0 10.919-2.528 14.911-7.666 14.911-5.18 0-7.666-3.997-7.666-14.91zm8.93 0c0-7.393-.04-9.176-1.263-9.176-1.223 0-1.264 1.778-1.264 9.176 0 7.399.041 9.374 1.264 9.374s1.264-1.98 1.264-9.374zm-94.217 0c0-10.918 2.492-14.91 7.667-14.91 5.138 0 7.666 3.992 7.666 14.91 0 10.919-2.528 14.911-7.666 14.911-5.18 0-7.667-3.997-7.667-14.91zm8.93 0c0-7.393-.04-9.176-1.263-9.176-1.223 0-1.264 1.778-1.264 9.176 0 7.399.041 9.374 1.264 9.374s1.264-1.98 1.264-9.374zm8.514 56.486h6.6c4.227 0 7.707 2.769 7.707 9.768 0 3.717-.989 6.289-2.45 7.595l2.885 11.904h-6.086l-2.17-9.768h-.436v9.768h-6.045v-29.267h-.005zm6.558 14.952c.83 0 1.544-.871 1.544-5.101 0-3.993-.71-4.47-1.58-4.47h-.477v9.571h.513zm27.575 6.34v-21.397h6.205v21.122c0 2.929.394 3.282 1.067 3.282.673 0 1.067-.317 1.067-3.205v-21.199h5.926v21.277c0 5.496-2.093 8.269-7.19 8.269-5.102 0-7.075-2.69-7.075-8.149zm16.633-21.292h6.521c3.792 0 7.827 1.343 7.827 9.965 0 9.768-4.305 10.364-7.982 10.364h-.238v8.938h-6.123v-29.267h-.005zm6.439 15.149c.948 0 1.818-.197 1.818-5.101 0-4.589-.87-4.667-1.855-4.667h-.274v9.768h.31zm-74.649-.444c0-10.717 2.373-14.911 7.548-14.911 5.138 0 6.558 3.795 6.956 12.261H8.907c0-5.537-.274-6.527-1.222-6.527-1.223 0-1.264 2.452-1.264 9.177 0 6.724-.12 9.493 1.58 9.493 1.264 0 1.502-1.188 1.62-4.708H8.066v-4.785h6.814v14.636h-3.361l-.12-3.401h-.04c-.394 1.975-2.135 3.598-4.663 3.598-4.822 0-6.558-4.112-6.558-14.833zm33.876-.037c0-10.914 2.492-14.911 7.666-14.911 5.139 0 7.667 3.997 7.667 14.911 0 10.919-2.528 14.911-7.666 14.911-5.18 0-7.667-3.997-7.667-14.911zm8.93 0c0-7.398-.04-9.177-1.264-9.177-1.222 0-1.264 1.779-1.264 9.177s.042 9.374 1.264 9.374c1.223 0 1.264-1.98 1.264-9.374zm-27.166-50.15h5.651c5.89 0 9.526 1.58 9.526 14.635 0 12.972-3.755 14.636-9.526 14.636h-5.651V70.938zm6.677 24.087c1.974 0 2.134-1.779 2.134-9.452 0-7.87-.155-9.254-2.175-9.254h-.394v18.706h.435zm10.863-2.888V70.741h6.206v21.122c0 2.929.393 3.282 1.067 3.282.673 0 1.067-.316 1.067-3.204v-21.2h5.926V92.02c0 5.496-2.093 8.264-7.195 8.264-5.093 0-7.071-2.69-7.071-8.145zm63.318-21.2h6.243v29.267h-6.243V70.938zm8.61 14.572c0-10.914 2.492-14.911 7.667-14.911 5.138 0 7.666 3.997 7.666 14.91 0 10.92-2.528 14.912-7.666 14.912-5.175 0-7.667-3.993-7.667-14.911zm8.931 0c0-7.398-.042-9.177-1.264-9.177-1.228 0-1.264 1.779-1.264 9.177s.036 9.374 1.264 9.374c1.227 0 1.264-1.976 1.264-9.374zm-64.226 0c0-10.914 2.373-14.911 7.548-14.911 5.138 0 7.112 2.572 7.112 12.261h-5.89c0-5.578-.274-6.527-1.222-6.527-1.228 0-1.186 2.214-1.186 9.177 0 7.196.04 9.374 1.222 9.374 1.026 0 1.264-.674 1.342-6.29h5.89c-.275 6.212-1.026 11.827-7.273 11.827-5.17 0-7.543-3.993-7.543-14.911zm20.407-14.691h6.522l4.703 29.386H75.3l-.591-5.459H72.02l-.554 5.459h-5.849l4.74-29.386zm4.072 19.774l-.71-7.118c-.12-.99-.197-1.94-.275-2.847h-.078c-.078.908-.156 1.857-.275 2.847l-.75 7.118h2.088zm-72.4-19.655H13.33v5.382H8.27v5.853h3.595v4.983H8.27v7.87h5.138v5.179H2.03V70.938zm82.278 5.377h-3.636v-5.381h13.514v5.38H90.55v23.891h-6.242v-23.89zm38.639-5.377h5.77l1.227 5.34c.674 2.888 1.42 6.211 1.938 9.177h.077a143.862 143.862 0 01-.274-8.782v-5.735h5.335v29.267h-5.061l-1.461-5.101c-.906-3.126-1.859-5.973-2.408-9.177h-.078c.238 2.255.275 6.88.275 8.897v5.381h-5.336V70.938h-.004z" fill="#392E37"/></g><defs><clipPath id="clip0"><path fill="#fff" d="M0 0h143v136H0z"/></clipPath></defs></svg>